<?xml version="1.0" encoding="UTF-8" standalone="no"?>
<svg width="20px" height="20px" viewBox="0 0 20 20" version="1.1" xmlns="http://www.w3.org/2000/svg" xmlns:xlink="http://www.w3.org/1999/xlink">
    <g id="Symbols" stroke="none" stroke-width="1" fill="none" fill-rule="evenodd">
        <g id="Social" transform="translate(-153.000000, 0.000000)">
            <g transform="translate(19.000000, 0.000000)" id="Email">
                <g transform="translate(134.400000, 0.000000)">
                    <path d="M10.6550877,0.34245614 C15.7526316,0.34245614 19.0133333,3.83368421 19.0133333,8.74701754 C19.0133333,13.0192982 16.0747368,15.1315789 13.5473684,15.1315789 C12.1929825,15.1315789 11.0677193,14.4887719 10.7922807,13.3852632 L10.7470175,13.3852632 C10.1494737,14.3049123 8.90912281,14.9024561 7.99087719,14.9024561 C6.10736842,14.9024561 4.86842105,13.477193 4.86842105,11.3649123 C4.86842105,8.42631579 6.98070175,5.62491228 9.59859649,5.62491228 C10.3329825,5.62491228 10.9294737,5.94561404 11.2978947,6.77192982 L11.3431579,6.77192982 L11.7105263,5.80842105 L14.0996491,5.80842105 L12.9961404,11.0442105 C12.7207018,12.1915789 13.042807,12.7438596 13.9610526,12.7438596 C15.34,12.7438596 16.5789474,11.182807 16.5789474,8.83894737 C16.5789474,5.71684211 14.9712281,2.68491228 10.3329825,2.68491228 C6.47473684,2.68491228 2.61649123,5.9922807 2.61649123,11.0908772 C2.61649123,15.637193 5.83192982,17.6575439 9.27649123,17.6575439 C10.3782456,17.6575439 11.7557895,17.2901754 12.6740351,16.8308772 L13.5021053,18.9431579 C12.0778947,19.6778947 10.6087719,20 8.95578947,20 C4.31614035,20 0,17.2435088 0,11.182807 C0,4.66 4.82175439,0.34245614 10.6550877,0.34245614 Z" id="Path" fill="#000000"></path>
                    <path d="M8.86385965,12.4670175 C9.27649123,12.4670175 9.64385965,12.2382456 10.1494737,11.5501754 L10.6550877,8.6554386 C10.4933333,8.33473684 10.1494737,8.10421053 9.7354386,8.10421053 C8.54175439,8.10421053 7.80701754,9.89719298 7.80701754,11.1361404 C7.80701754,11.9859649 8.17438596,12.4670175 8.86385965,12.4670175 Z" id="Path" fill="#FFFFFF"></path>
                </g>
            </g>
        </g>
    </g>
</svg>