<?xml version="1.0" encoding="UTF-8" standalone="no"?>
<svg width="21px" height="20px" viewBox="0 0 21 20" version="1.1" xmlns="http://www.w3.org/2000/svg" xmlns:xlink="http://www.w3.org/1999/xlink">
    <!-- Generator: Sketch 41.2 (35397) - http://www.bohemiancoding.com/sketch -->
    <title>Facebook-black</title>
    <desc>Created with Sketch.</desc>
    <defs></defs>
    <g id="Symbols" stroke="none" stroke-width="1" fill="none" fill-rule="evenodd">
        <g id="Social" transform="translate(-65.000000, 0.000000)" fill="#000000">
            <g transform="translate(19.000000, 0.000000)" id="Facebook-black">
                <g transform="translate(46.400000, 0.000000)">
                    <g id="Icons">
                        <g>
                            <g id="Black">
                                <path d="M10.6826479,20 L1.10384667,20 C0.494030417,20 0,19.5056633 0,18.8960846 L0,1.10383792 C0,0.494104167 0.494107917,0 1.10384667,0 L18.8962312,0 C19.5058146,0 20,0.494104167 20,1.10383792 L20,18.8960846 C20,19.5057408 19.5057371,20 18.8962312,20 L13.7997104,20 L13.7997104,12.2548979 L16.3993837,12.2548979 L16.7886479,9.23649417 L13.7997104,9.23649417 L13.7997104,7.30943375 C13.7997104,6.43553625 14.04238,5.84000417 15.2955375,5.84000417 L16.8938796,5.83930542 L16.8938796,3.13962125 C16.6174525,3.10283667 15.66866,3.02065417 14.5648133,3.02065417 C12.2603475,3.02065417 10.6826479,4.4273025 10.6826479,7.01050375 L10.6826479,9.23649417 L8.07630083,9.23649417 L8.07630083,12.2548979 L10.6826479,12.2548979 L10.6826479,20 L10.6826479,20 Z" id="Facebook"></path>
                            </g>
                        </g>
                    </g>
                </g>
            </g>
        </g>
    </g>
</svg>