<?xml version="1.0" encoding="UTF-8" standalone="no"?>
<svg width="21px" height="20px" viewBox="0 0 21 20" version="1.1" xmlns="http://www.w3.org/2000/svg" xmlns:xlink="http://www.w3.org/1999/xlink">
    <!-- Generator: Sketch 41.2 (35397) - http://www.bohemiancoding.com/sketch -->
    <title>Pinterest-black</title>
    <desc>Created with Sketch.</desc>
    <defs></defs>
    <g id="Symbols" stroke="none" stroke-width="1" fill="none" fill-rule="evenodd">
        <g id="Social" transform="translate(-109.000000, 0.000000)" fill="#000000">
            <g transform="translate(19.000000, 0.000000)" id="Pinterest-black">
                <g transform="translate(90.400000, 0.000000)">
                    <g id="Icons">
                        <g>
                            <g id="Black">
                                <path d="M10.0005879,0 C4.47815625,0 0,4.47698 0,10.0005879 C0,14.0941967 2.46251542,17.6127475 5.98694667,19.1591696 C5.95872292,18.46181 5.9822425,17.6221554 6.15981667,16.8624683 C6.35267833,16.0510379 7.44634542,11.4141237 7.44634542,11.4141237 C7.44634542,11.4141237 7.12765333,10.7755629 7.12765333,9.83124583 C7.12765333,8.34950333 7.98729917,7.2429 9.05627083,7.2429 C9.96530833,7.2429 10.4051275,7.92614792 10.4051275,8.74463458 C10.4051275,9.65837583 9.82183792,11.0260479 9.52196167,12.2925854 C9.27147625,13.3545012 10.0535075,14.2188513 11.1001354,14.2188513 C12.9946492,14.2188513 14.2705946,11.7857354 14.2705946,8.90221667 C14.2705946,6.71135417 12.7947317,5.07085333 10.1099546,5.07085333 C7.07708583,5.07085333 5.18727583,7.332275 5.18727583,9.85829375 C5.18727583,10.7308754 5.44364083,11.3447404 5.84582833,11.8198388 C6.03163417,12.0397483 6.05632958,12.1267712 5.98929833,12.3784325 C5.94225917,12.5607104 5.83171625,13.0052333 5.78585292,13.180455 C5.71882167,13.4332921 5.5142,13.5250192 5.28605875,13.43094 C3.88781083,12.8605867 3.23749042,11.3306288 3.23749042,9.61016042 C3.23749042,6.77015333 5.63297458,3.362145 10.3839596,3.362145 C14.2023871,3.362145 16.71547,6.12688875 16.71547,9.09155042 C16.71547,13.0146408 14.5351912,15.9451992 11.3188687,15.9451992 C10.2404892,15.9451992 9.22443708,15.36191 8.876345,14.6998296 C8.876345,14.6998296 8.29540792,17.0035867 8.173105,17.4481096 C7.9614275,18.2183808 7.54630458,18.9898279 7.16646083,19.5895808 C8.06609042,19.8553538 9.0162875,20 10.0005879,20 C15.52302,20 20,15.52302 20,10.0005879 C20,4.47698 15.52302,0 10.0005879,0" id="Pinterest"></path>
                            </g>
                        </g>
                    </g>
                </g>
            </g>
        </g>
    </g>
</svg>